<svg width="42" height="25" viewBox="0 0 42 25" fill="none" xmlns="http://www.w3.org/2000/svg">
<path d="M13.6371 6.78985C13.5299 5.7865 13.078 5.00527 12.2815 4.44615C11.4926 3.88703 10.4663 3.60747 9.20249 3.60747C8.31403 3.60747 7.55194 3.7415 6.91623 4.00957C6.28052 4.27764 5.79416 4.64145 5.45716 5.101C5.12015 5.56056 4.94782 6.08521 4.94016 6.67497C4.94016 7.16515 5.05122 7.59024 5.27334 7.95022C5.50311 8.3102 5.81331 8.61656 6.20393 8.86932C6.59454 9.11441 7.02729 9.32121 7.50215 9.48971C7.97702 9.65821 8.45572 9.7999 8.93825 9.91479L11.1441 10.4663C12.0326 10.673 12.8865 10.9526 13.7061 11.3049C14.5333 11.6573 23.7855 11.9406 24.4366 12.4768C25.0952 13.0129 17.1029 13.821 17.4859 14.5792C17.8688 15.3375 18.0603 16.2259 18.0603 17.2446C18.0603 18.6233 17.708 19.8372 17.0034 20.8865C16.2987 21.9282 15.28 22.7439 13.9473 23.3337C12.6223 23.9158 11.0177 24.2068 9.13356 24.2068C7.30302 24.2068 5.71374 23.9234 4.36573 23.3566C3.02537 22.7899 1.97607 21.9627 1.21781 20.8751C0.467209 19.7875 0.0612734 18.4624 0 16.9H4.19339C4.25467 17.7195 4.50742 18.4011 4.95165 18.945C5.39588 19.4888 5.97415 19.8947 6.68645 20.1628C7.40641 20.4308 8.21063 20.5649 9.09909 20.5649C10.0258 20.5649 10.8377 20.427 11.5347 20.1513C12.2393 19.8679 12.7908 19.4773 13.1891 18.9794C13.5874 18.4739 13.7903 17.8842 13.798 17.2101C13.7903 16.5974 13.6103 16.0919 13.258 15.6936C12.9057 15.2877 12.4117 14.9507 11.776 14.6826C11.1479 14.4069 10.4126 14.1618 9.57013 13.9473L6.89325 13.258C4.95548 12.7602 3.42365 12.0057 2.29775 10.9947C1.17951 9.97607 0.620393 8.62422 0.620393 6.93921C0.620393 5.5529 0.995692 4.33892 1.74629 3.29727C2.50455 2.25563 3.53471 1.44758 4.83676 0.873145C6.13882 0.291048 7.61321 0 9.25993 0C10.9296 0 12.3925 0.291048 13.6486 0.873145C14.9124 1.44758 15.9043 2.24797 16.6242 3.27429C17.3442 4.29296 17.7157 5.46482 17.7386 6.78985H13.6371Z" fill="white"/>
<path d="M42 8.26041L34.7994 8.86932C34.6769 8.16467 37.3547 6.93155 37.0254 6.38775C36.696 5.83629 36.2863 5.36908 35.7961 4.98612C35.3059 4.60316 34.7468 4.31594 34.1187 4.12446C33.4983 3.92532 32.8281 3.82575 32.1082 3.82575C30.8291 3.82575 29.6955 4.14744 28.7075 4.79081C27.7195 5.42652 26.9459 6.36094 26.3868 7.59406C25.8277 8.81953 25.5481 10.3169 25.5481 12.0862C25.5481 13.8861 25.8277 15.4026 26.3868 16.6357C26.9536 17.8612 27.7271 18.7879 28.7075 19.416C29.6955 20.0364 30.8253 20.3466 32.0967 20.3466C32.8013 20.3466 33.46 20.2547 34.0728 20.0708C34.6932 19.8794 35.2484 19.5998 35.7386 19.2322C36.2365 18.8645 36.6539 18.4126 36.9909 17.8765C37.3356 17.3404 37.573 16.7276 37.7032 16.0383L42 16.0613C41.8392 17.1795 41.4907 18.2288 40.9545 19.2092C40.426 20.1896 39.7329 21.055 38.8751 21.8056C38.0172 22.5486 37.0139 23.1307 35.865 23.5519C34.7161 23.9655 33.4409 24.1723 32.0393 24.1723C29.9713 24.1723 28.1254 23.6936 26.5017 22.7362C24.8779 21.7788 23.5989 20.3964 22.6644 18.5888C21.73 16.7812 21.2628 14.6137 21.2628 12.0862C21.2628 9.55098 21.7338 7.38344 22.6759 5.58353C23.618 3.77597 24.9009 2.39349 26.5247 1.43609C28.1484 0.478698 29.9866 0 32.0393 0C33.349 0 34.5668 0.18382 35.6927 0.551459C36.8186 0.9191 37.8219 1.45907 38.7027 2.17137C39.5835 2.87602 40.3073 3.7415 40.8741 4.76783C41.4485 5.7865 41.8238 6.9507 42 8.26041Z" fill="white"/>
</svg>
