<svg width="52" height="52" viewBox="0 0 52 52" fill="none" xmlns="http://www.w3.org/2000/svg">
<path d="M12.9846 37.2769H17.8021V25.5772L10.9199 20.4156V35.2122C10.9199 36.3547 11.8456 37.2769 12.9846 37.2769Z" fill="#4285F4"/>
<path d="M34.3193 37.2769H39.1368C40.2793 37.2769 41.2015 36.3512 41.2015 35.2122V20.4156L34.3193 25.5772" fill="#34A853"/>
<path d="M34.3193 16.6305V25.5772L41.2015 20.4156V17.6628C41.2015 15.1095 38.2869 13.654 36.2463 15.1853" fill="#FBBC04"/>
<path d="M17.8021 25.5772L17.8021 16.6304L26.0607 22.8243L34.3193 16.6305V25.5772L26.0607 31.7711" fill="#EA4335"/>
<path d="M10.9199 17.6628V20.4156L17.8021 25.5772L17.8021 16.6304L15.8751 15.1853C13.8311 13.654 10.9199 15.1095 10.9199 17.6628Z" fill="#C5221F"/>
</svg>
