<svg width="53" height="52" viewBox="0 0 53 52" fill="none" xmlns="http://www.w3.org/2000/svg">
<path d="M21.4757 26.1581C21.4757 23.5444 23.5952 21.425 26.2105 21.425C28.8257 21.425 30.9464 23.5444 30.9464 26.1581C30.9464 28.7718 28.8257 30.8911 26.2105 30.8911C23.5952 30.8911 21.4757 28.7718 21.4757 26.1581ZM18.9156 26.1581C18.9156 30.1846 22.1815 33.4486 26.2105 33.4486C30.2395 33.4486 33.5054 30.1846 33.5054 26.1581C33.5054 22.1315 30.2395 18.8675 26.2105 18.8675C22.1815 18.8675 18.9156 22.1315 18.9156 26.1581ZM32.0894 18.5785C32.0893 18.9154 32.1891 19.2449 32.3763 19.5252C32.5635 19.8054 32.8297 20.0239 33.1412 20.153C33.4526 20.282 33.7954 20.3159 34.1261 20.2503C34.4568 20.1847 34.7607 20.0226 34.9992 19.7844C35.2377 19.5462 35.4002 19.2427 35.4661 18.9122C35.532 18.5817 35.4984 18.2392 35.3695 17.9278C35.2406 17.6164 35.0222 17.3502 34.7419 17.1629C34.4616 16.9756 34.132 16.8755 33.7949 16.8754H33.7942C33.3422 16.8756 32.9088 17.0551 32.5892 17.3744C32.2695 17.6937 32.0898 18.1268 32.0894 18.5785ZM20.471 37.715C19.0859 37.6519 18.3331 37.4213 17.8328 37.2265C17.1695 36.9685 16.6963 36.6611 16.1987 36.1645C15.7011 35.6679 15.3931 35.1954 15.1361 34.5325C14.941 34.0328 14.7103 33.2802 14.6474 31.8959C14.5785 30.3993 14.5647 29.9498 14.5647 26.1582C14.5647 22.3666 14.5796 21.9183 14.6474 20.4205C14.7104 19.0362 14.9428 18.2851 15.1361 17.7838C15.3943 17.121 15.7018 16.648 16.1987 16.1507C16.6956 15.6534 17.1684 15.3456 17.8328 15.0887C18.3329 14.8938 19.0859 14.6632 20.471 14.6003C21.9685 14.5315 22.4183 14.5177 26.2105 14.5177C30.0026 14.5177 30.4529 14.5326 31.9516 14.6003C33.3367 14.6633 34.0883 14.8956 34.5899 15.0887C35.2531 15.3456 35.7264 15.6541 36.224 16.1507C36.7215 16.6473 37.0284 17.121 37.2866 17.7838C37.4816 18.2836 37.7124 19.0362 37.7753 20.4205C37.8442 21.9183 37.8579 22.3666 37.8579 26.1582C37.8579 29.9498 37.8442 30.3981 37.7753 31.8959C37.7122 33.2802 37.4804 34.0325 37.2866 34.5325C37.0284 35.1954 36.7208 35.6684 36.224 36.1645C35.7271 36.6607 35.2531 36.9685 34.5899 37.2265C34.0898 37.4215 33.3367 37.652 31.9516 37.715C30.4542 37.7838 30.0043 37.7975 26.2105 37.7975C22.4166 37.7975 21.9681 37.7838 20.471 37.715ZM20.3534 12.046C18.841 12.1148 17.8076 12.3545 16.9051 12.7055C15.9704 13.0679 15.1791 13.5542 14.3885 14.3431C13.5978 15.1321 13.1125 15.9241 12.7498 16.8582C12.3986 17.7608 12.1588 18.793 12.0899 20.3045C12.0199 21.8184 12.0039 22.3023 12.0039 26.1581C12.0039 30.0138 12.0199 30.4978 12.0899 32.0117C12.1588 33.5232 12.3986 34.5554 12.7498 35.4579C13.1125 36.3915 13.5979 37.1844 14.3885 37.973C15.179 38.7616 15.9704 39.2472 16.9051 39.6107C17.8093 39.9617 18.841 40.2013 20.3534 40.2702C21.869 40.339 22.3524 40.3561 26.2105 40.3561C30.0685 40.3561 30.5528 40.3401 32.0676 40.2702C33.5801 40.2013 34.6128 39.9617 35.5159 39.6107C36.45 39.2472 37.2418 38.762 38.0325 37.973C38.8232 37.1841 39.3075 36.3915 39.6712 35.4579C40.0223 34.5554 40.2633 33.5231 40.331 32.0117C40.3999 30.4967 40.4159 30.0138 40.4159 26.1581C40.4159 22.3023 40.3999 21.8184 40.331 20.3045C40.2621 18.7929 40.0223 17.7602 39.6712 16.8582C39.3075 15.9247 38.8219 15.1333 38.0325 14.3431C37.2431 13.5529 36.45 13.0679 35.517 12.7055C34.6128 12.3545 33.5799 12.1137 32.0687 12.046C30.5539 11.9772 30.0697 11.96 26.2116 11.96C22.3536 11.96 21.869 11.976 20.3534 12.046Z" fill="url(#paint0_linear_31_97)"/>
<defs>
<linearGradient id="paint0_linear_31_97" x1="39.8698" y1="40.3561" x2="11.4737" y2="11.9441" gradientUnits="userSpaceOnUse">
<stop stop-color="#FBE18A"/>
<stop offset="0.21" stop-color="#FCBB45"/>
<stop offset="0.38" stop-color="#F75274"/>
<stop offset="0.52" stop-color="#D53692"/>
<stop offset="0.74" stop-color="#8F39CE"/>
<stop offset="1" stop-color="#5B4FE9"/>
</linearGradient>
</defs>
</svg>
