<svg width="52" height="52" viewBox="0 0 52 52" fill="none" xmlns="http://www.w3.org/2000/svg">
<path fill-rule="evenodd" clip-rule="evenodd" d="M14.0599 11.96C12.9005 11.96 11.96 12.8719 11.96 13.9953V38.3385C11.96 39.4621 12.9006 40.3732 14.0599 40.3732H38.2732C39.433 40.3732 40.3731 39.462 40.3731 38.3382V13.9953C40.3731 12.8719 39.433 11.96 38.2732 11.96H14.0599ZM20.5942 22.9465V35.7382H16.3425V22.9465H20.5942ZM20.8745 18.9905C20.8745 20.218 19.9516 21.2003 18.4692 21.2003L18.4414 21.2002C17.0144 21.2002 16.0918 20.2179 16.0918 18.9904C16.0918 17.735 17.0422 16.7801 18.4974 16.7801C19.9516 16.7801 20.8467 17.735 20.8745 18.9905ZM27.1991 35.7382H22.9476C22.9476 35.7382 23.0033 24.1469 22.9478 22.9469H27.1994V24.7575C27.7646 23.8861 28.7761 22.6466 31.0313 22.6466C33.8285 22.6466 35.9258 24.4749 35.9258 28.4038V35.7382H31.6745V28.8957C31.6745 27.1759 31.0588 26.003 29.5207 26.003C28.3459 26.003 27.6463 26.794 27.3391 27.5582C27.2268 27.8309 27.1991 28.2137 27.1991 28.5955V35.7382Z" fill="#00AAFF"/>
</svg>
